STARTFONT 2.1
COMMENT
COMMENT Converted from OpenType font "Silkscreen-Regular.ttf" by "otf2bdf 3.0".
COMMENT
FONT -FreeType-Silkscreen-Medium-R-Normal--14-100-100-100-P-68-ISO10646-1
SIZE 10 100 100
FONTBOUNDINGBOX 19 19 -3 -4
STARTPROPERTIES 19
FOUNDRY "FreeType"
FAMILY_NAME "Silkscreen"
WEIGHT_NAME "Medium"
SLANT "R"
SETWIDTH_NAME "Normal"
ADD_STYLE_NAME ""
PIXEL_SIZE 14
POINT_SIZE 100
RESOLUTION_X 100
RESOLUTION_Y 100
SPACING "P"
AVERAGE_WIDTH 68
CHARSET_REGISTRY "ISO10646"
CHARSET_ENCODING "1"
FONT_ASCENT 14
FONT_DESCENT 3
COPYRIGHT "Copyright 2001 The Silkscreen Project Authors (https://github.com/googlefonts/silkscreen)"
_OTF_FONTFILE "Silkscreen-Regular.ttf"
_OTF_PSNAME "Silkscreen-Regular"
ENDPROPERTIES
CHARS 226
STARTCHAR 000D
ENCODING 13
SWIDTH 504 0
DWIDTH 7 0
BBX 0 0 0 0
BITMAP
ENDCHAR
STARTCHAR 0020
ENCODING 32
SWIDTH 504 0
DWIDTH 7 0
BBX 0 0 0 0
BITMAP
ENDCHAR
STARTCHAR 0021
ENCODING 33
SWIDTH 360 0
DWIDTH 5 0
BBX 2 9 2 0
BITMAP
C0
C0
C0
C0
C0
00
00
C0
C0
ENDCHAR
STARTCHAR 0022
ENCODING 34
SWIDTH 648 0
DWIDTH 9 0
BBX 5 4 2 5
BITMAP
D8
D8
D8
D8
ENDCHAR
STARTCHAR 0023
ENCODING 35
SWIDTH 864 0
DWIDTH 12 0
BBX 9 9 2 0
BITMAP
6600
6600
FF80
FF80
6600
FF80
FF80
6600
6600
ENDCHAR
STARTCHAR 0024
ENCODING 36
SWIDTH 792 0
DWIDTH 11 0
BBX 7 13 2 -2
BITMAP
18
18
7E
7E
C0
C0
78
06
06
F8
F8
60
60
ENDCHAR
STARTCHAR 0025
ENCODING 37
SWIDTH 864 0
DWIDTH 12 0
BBX 9 9 2 0
BITMAP
E600
E600
E600
E600
1800
6780
6780
6780
6780
ENDCHAR
STARTCHAR 0026
ENCODING 38
SWIDTH 792 0
DWIDTH 11 0
BBX 7 13 2 -2
BITMAP
18
18
7E
7E
C0
C0
78
C0
C0
7E
7E
18
18
ENDCHAR
STARTCHAR 0027
ENCODING 39
SWIDTH 360 0
DWIDTH 5 0
BBX 2 4 2 5
BITMAP
C0
C0
C0
C0
ENDCHAR
STARTCHAR 0028
ENCODING 40
SWIDTH 504 0
DWIDTH 7 0
BBX 3 9 2 0
BITMAP
60
60
C0
C0
C0
C0
C0
60
60
ENDCHAR
STARTCHAR 0029
ENCODING 41
SWIDTH 504 0
DWIDTH 7 0
BBX 3 9 2 0
BITMAP
C0
C0
60
60
60
60
60
C0
C0
ENDCHAR
STARTCHAR 002A
ENCODING 42
SWIDTH 864 0
DWIDTH 12 0
BBX 9 9 2 0
BITMAP
1800
1800
D980
D980
7E00
D980
D980
1800
1800
ENDCHAR
STARTCHAR 002B
ENCODING 43
SWIDTH 864 0
DWIDTH 12 0
BBX 9 9 2 0
BITMAP
1800
1800
1800
1800
FF80
FF80
1800
1800
1800
ENDCHAR
STARTCHAR 002C
ENCODING 44
SWIDTH 504 0
DWIDTH 7 0
BBX 3 4 2 -2
BITMAP
60
60
C0
C0
ENDCHAR
STARTCHAR 002D
ENCODING 45
SWIDTH 648 0
DWIDTH 9 0
BBX 5 2 2 4
BITMAP
F8
F8
ENDCHAR
STARTCHAR 002E
ENCODING 46
SWIDTH 360 0
DWIDTH 5 0
BBX 2 2 2 0
BITMAP
C0
C0
ENDCHAR
STARTCHAR 002F
ENCODING 47
SWIDTH 648 0
DWIDTH 9 0
BBX 5 9 2 0
BITMAP
18
18
18
18
60
C0
C0
C0
C0
ENDCHAR
STARTCHAR 0030
ENCODING 48
SWIDTH 792 0
DWIDTH 11 0
BBX 7 9 2 0
BITMAP
78
78
C6
C6
C6
C6
C6
78
78
ENDCHAR
STARTCHAR 0031
ENCODING 49
SWIDTH 648 0
DWIDTH 9 0
BBX 5 9 2 0
BITMAP
E0
E0
60
60
60
60
60
F8
F8
ENDCHAR
STARTCHAR 0032
ENCODING 50
SWIDTH 792 0
DWIDTH 11 0
BBX 7 9 2 0
BITMAP
F8
F8
06
06
78
C0
C0
FE
FE
ENDCHAR
STARTCHAR 0033
ENCODING 51
SWIDTH 792 0
DWIDTH 11 0
BBX 7 9 2 0
BITMAP
F8
F8
06
06
78
06
06
F8
F8
ENDCHAR
STARTCHAR 0034
ENCODING 52
SWIDTH 792 0
DWIDTH 11 0
BBX 7 9 2 0
BITMAP
D8
D8
D8
D8
FE
FE
18
18
18
ENDCHAR
STARTCHAR 0035
ENCODING 53
SWIDTH 792 0
DWIDTH 11 0
BBX 7 9 2 0
BITMAP
FE
FE
C0
C0
F8
06
06
F8
F8
ENDCHAR
STARTCHAR 0036
ENCODING 54
SWIDTH 792 0
DWIDTH 11 0
BBX 7 9 2 0
BITMAP
78
78
C0
C0
F8
FE
C6
78
78
ENDCHAR
STARTCHAR 0037
ENCODING 55
SWIDTH 792 0
DWIDTH 11 0
BBX 7 9 2 0
BITMAP
FE
FE
06
06
18
60
60
60
60
ENDCHAR
STARTCHAR 0038
ENCODING 56
SWIDTH 792 0
DWIDTH 11 0
BBX 7 9 2 0
BITMAP
78
78
C6
C6
78
FE
C6
78
78
ENDCHAR
STARTCHAR 0039
ENCODING 57
SWIDTH 792 0
DWIDTH 11 0
BBX 7 9 2 0
BITMAP
78
78
C6
FE
7E
06
06
78
78
ENDCHAR
STARTCHAR 003A
ENCODING 58
SWIDTH 360 0
DWIDTH 5 0
BBX 2 5 2 2
BITMAP
C0
C0
00
C0
C0
ENDCHAR
STARTCHAR 003B
ENCODING 59
SWIDTH 504 0
DWIDTH 7 0
BBX 3 7 2 0
BITMAP
60
60
00
60
60
C0
C0
ENDCHAR
STARTCHAR 003C
ENCODING 60
SWIDTH 648 0
DWIDTH 9 0
BBX 5 9 2 0
BITMAP
18
18
60
60
C0
60
60
18
18
ENDCHAR
STARTCHAR 003D
ENCODING 61
SWIDTH 648 0
DWIDTH 9 0
BBX 5 5 2 2
BITMAP
F8
F8
00
F8
F8
ENDCHAR
STARTCHAR 003E
ENCODING 62
SWIDTH 648 0
DWIDTH 9 0
BBX 5 9 2 0
BITMAP
C0
C0
60
60
18
60
60
C0
C0
ENDCHAR
STARTCHAR 003F
ENCODING 63
SWIDTH 792 0
DWIDTH 11 0
BBX 7 9 2 0
BITMAP
F8
F8
06
06
78
78
00
60
60
ENDCHAR
STARTCHAR 0040
ENCODING 64
SWIDTH 864 0
DWIDTH 12 0
BBX 9 9 2 0
BITMAP
7E00
7E00
D980
D980
DE00
DE00
C000
7E00
7E00
ENDCHAR
STARTCHAR 0041
ENCODING 65
SWIDTH 792 0
DWIDTH 11 0
BBX 7 9 2 0
BITMAP
78
78
C6
C6
FE
FE
C6
C6
C6
ENDCHAR
STARTCHAR 0042
ENCODING 66
SWIDTH 792 0
DWIDTH 11 0
BBX 7 9 2 0
BITMAP
F8
F8
C6
C6
FE
FE
C6
F8
F8
ENDCHAR
STARTCHAR 0043
ENCODING 67
SWIDTH 792 0
DWIDTH 11 0
BBX 7 9 2 0
BITMAP
78
78
C6
C6
C0
C6
C6
78
78
ENDCHAR
STARTCHAR 0044
ENCODING 68
SWIDTH 792 0
DWIDTH 11 0
BBX 7 9 2 0
BITMAP
F8
F8
C6
C6
C6
C6
C6
F8
F8
ENDCHAR
STARTCHAR 0045
ENCODING 69
SWIDTH 648 0
DWIDTH 9 0
BBX 5 9 2 0
BITMAP
F8
F8
C0
C0
F8
F8
C0
F8
F8
ENDCHAR
STARTCHAR 0046
ENCODING 70
SWIDTH 648 0
DWIDTH 9 0
BBX 5 9 2 0
BITMAP
F8
F8
C0
C0
F8
F8
C0
C0
C0
ENDCHAR
STARTCHAR 0047
ENCODING 71
SWIDTH 792 0
DWIDTH 11 0
BBX 7 9 2 0
BITMAP
7E
7E
C0
C0
DE
DE
C6
78
78
ENDCHAR
STARTCHAR 0048
ENCODING 72
SWIDTH 792 0
DWIDTH 11 0
BBX 7 9 2 0
BITMAP
C6
C6
C6
C6
FE
FE
C6
C6
C6
ENDCHAR
STARTCHAR 0049
ENCODING 73
SWIDTH 360 0
DWIDTH 5 0
BBX 2 9 2 0
BITMAP
C0
C0
C0
C0
C0
C0
C0
C0
C0
ENDCHAR
STARTCHAR 004A
ENCODING 74
SWIDTH 792 0
DWIDTH 11 0
BBX 7 9 2 0
BITMAP
06
06
06
06
06
C6
C6
78
78
ENDCHAR
STARTCHAR 004B
ENCODING 75
SWIDTH 792 0
DWIDTH 11 0
BBX 7 9 2 0
BITMAP
C6
C6
D8
D8
E0
D8
D8
C6
C6
ENDCHAR
STARTCHAR 004C
ENCODING 76
SWIDTH 648 0
DWIDTH 9 0
BBX 5 9 2 0
BITMAP
C0
C0
C0
C0
C0
C0
C0
F8
F8
ENDCHAR
STARTCHAR 004D
ENCODING 77
SWIDTH 864 0
DWIDTH 12 0
BBX 9 9 2 0
BITMAP
C180
C180
E780
E780
D980
D980
C180
C180
C180
ENDCHAR
STARTCHAR 004E
ENCODING 78
SWIDTH 864 0
DWIDTH 12 0
BBX 9 9 2 0
BITMAP
C180
C180
E180
E180
D980
C780
C780
C180
C180
ENDCHAR
STARTCHAR 004F
ENCODING 79
SWIDTH 792 0
DWIDTH 11 0
BBX 7 9 2 0
BITMAP
78
78
C6
C6
C6
C6
C6
78
78
ENDCHAR
STARTCHAR 0050
ENCODING 80
SWIDTH 792 0
DWIDTH 11 0
BBX 7 9 2 0
BITMAP
F8
F8
C6
C6
F8
F8
C0
C0
C0
ENDCHAR
STARTCHAR 0051
ENCODING 81
SWIDTH 792 0
DWIDTH 11 0
BBX 7 11 2 -2
BITMAP
78
78
C6
C6
C6
C6
C6
78
78
06
06
ENDCHAR
STARTCHAR 0052
ENCODING 82
SWIDTH 792 0
DWIDTH 11 0
BBX 7 9 2 0
BITMAP
F8
F8
C6
C6
F8
F8
D8
C6
C6
ENDCHAR
STARTCHAR 0053
ENCODING 83
SWIDTH 792 0
DWIDTH 11 0
BBX 7 9 2 0
BITMAP
7E
7E
C0
C0
78
06
06
F8
F8
ENDCHAR
STARTCHAR 0054
ENCODING 84
SWIDTH 648 0
DWIDTH 9 0
BBX 5 9 2 0
BITMAP
F8
F8
60
60
60
60
60
60
60
ENDCHAR
STARTCHAR 0055
ENCODING 85
SWIDTH 792 0
DWIDTH 11 0
BBX 7 9 2 0
BITMAP
C6
C6
C6
C6
C6
C6
C6
78
78
ENDCHAR
STARTCHAR 0056
ENCODING 86
SWIDTH 864 0
DWIDTH 12 0
BBX 9 9 2 0
BITMAP
C180
C180
C180
E780
6600
6600
6600
1800
1800
ENDCHAR
STARTCHAR 0057
ENCODING 87
SWIDTH 864 0
DWIDTH 12 0
BBX 9 9 2 0
BITMAP
C180
C180
D980
D980
D980
D980
D980
6600
6600
ENDCHAR
STARTCHAR 0058
ENCODING 88
SWIDTH 864 0
DWIDTH 12 0
BBX 9 9 2 0
BITMAP
C180
C180
6600
6600
1800
6600
6600
C180
C180
ENDCHAR
STARTCHAR 0059
ENCODING 89
SWIDTH 864 0
DWIDTH 12 0
BBX 9 9 2 0
BITMAP
C180
C180
6600
6600
1800
1800
1800
1800
1800
ENDCHAR
STARTCHAR 005A
ENCODING 90
SWIDTH 648 0
DWIDTH 9 0
BBX 5 9 2 0
BITMAP
F8
F8
18
18
60
C0
C0
F8
F8
ENDCHAR
STARTCHAR 005B
ENCODING 91
SWIDTH 504 0
DWIDTH 7 0
BBX 3 9 2 0
BITMAP
E0
E0
C0
C0
C0
C0
C0
E0
E0
ENDCHAR
STARTCHAR 005C
ENCODING 92
SWIDTH 648 0
DWIDTH 9 0
BBX 5 9 2 0
BITMAP
C0
C0
C0
C0
60
18
18
18
18
ENDCHAR
STARTCHAR 005D
ENCODING 93
SWIDTH 504 0
DWIDTH 7 0
BBX 3 9 2 0
BITMAP
E0
E0
60
60
60
60
60
E0
E0
ENDCHAR
STARTCHAR 005E
ENCODING 94
SWIDTH 648 0
DWIDTH 9 0
BBX 5 4 2 7
BITMAP
60
60
D8
D8
ENDCHAR
STARTCHAR 005F
ENCODING 95
SWIDTH 792 0
DWIDTH 11 0
BBX 7 2 2 -2
BITMAP
FE
FE
ENDCHAR
STARTCHAR 0060
ENCODING 96
SWIDTH 504 0
DWIDTH 7 0
BBX 3 4 2 11
BITMAP
C0
C0
60
60
ENDCHAR
STARTCHAR 0061
ENCODING 97
SWIDTH 792 0
DWIDTH 11 0
BBX 7 9 2 0
BITMAP
78
78
C6
C6
FE
FE
C6
C6
C6
ENDCHAR
STARTCHAR 0062
ENCODING 98
SWIDTH 792 0
DWIDTH 11 0
BBX 7 9 2 0
BITMAP
F8
F8
C6
C6
FE
FE
C6
F8
F8
ENDCHAR
STARTCHAR 0063
ENCODING 99
SWIDTH 792 0
DWIDTH 11 0
BBX 7 9 2 0
BITMAP
78
78
C6
C6
C0
C6
C6
78
78
ENDCHAR
STARTCHAR 0064
ENCODING 100
SWIDTH 792 0
DWIDTH 11 0
BBX 7 9 2 0
BITMAP
F8
F8
C6
C6
C6
C6
C6
F8
F8
ENDCHAR
STARTCHAR 0065
ENCODING 101
SWIDTH 648 0
DWIDTH 9 0
BBX 5 9 2 0
BITMAP
F8
F8
C0
C0
F8
F8
C0
F8
F8
ENDCHAR
STARTCHAR 0066
ENCODING 102
SWIDTH 648 0
DWIDTH 9 0
BBX 5 9 2 0
BITMAP
F8
F8
C0
C0
F8
F8
C0
C0
C0
ENDCHAR
STARTCHAR 0067
ENCODING 103
SWIDTH 792 0
DWIDTH 11 0
BBX 7 9 2 0
BITMAP
7E
7E
C0
C0
DE
DE
C6
78
78
ENDCHAR
STARTCHAR 0068
ENCODING 104
SWIDTH 792 0
DWIDTH 11 0
BBX 7 9 2 0
BITMAP
C6
C6
C6
C6
FE
FE
C6
C6
C6
ENDCHAR
STARTCHAR 0069
ENCODING 105
SWIDTH 360 0
DWIDTH 5 0
BBX 2 9 2 0
BITMAP
C0
C0
C0
C0
C0
C0
C0
C0
C0
ENDCHAR
STARTCHAR 006A
ENCODING 106
SWIDTH 792 0
DWIDTH 11 0
BBX 7 9 2 0
BITMAP
06
06
06
06
06
C6
C6
78
78
ENDCHAR
STARTCHAR 006B
ENCODING 107
SWIDTH 792 0
DWIDTH 11 0
BBX 7 9 2 0
BITMAP
C6
C6
D8
D8
E0
D8
D8
C6
C6
ENDCHAR
STARTCHAR 006C
ENCODING 108
SWIDTH 648 0
DWIDTH 9 0
BBX 5 9 2 0
BITMAP
C0
C0
C0
C0
C0
C0
C0
F8
F8
ENDCHAR
STARTCHAR 006D
ENCODING 109
SWIDTH 864 0
DWIDTH 12 0
BBX 9 9 2 0
BITMAP
C180
C180
E780
E780
D980
D980
C180
C180
C180
ENDCHAR
STARTCHAR 006E
ENCODING 110
SWIDTH 864 0
DWIDTH 12 0
BBX 9 9 2 0
BITMAP
C180
C180
E180
E180
D980
C780
C780
C180
C180
ENDCHAR
STARTCHAR 006F
ENCODING 111
SWIDTH 792 0
DWIDTH 11 0
BBX 7 9 2 0
BITMAP
78
78
C6
C6
C6
C6
C6
78
78
ENDCHAR
STARTCHAR 0070
ENCODING 112
SWIDTH 792 0
DWIDTH 11 0
BBX 7 9 2 0
BITMAP
F8
F8
C6
C6
F8
F8
C0
C0
C0
ENDCHAR
STARTCHAR 0071
ENCODING 113
SWIDTH 792 0
DWIDTH 11 0
BBX 7 11 2 -2
BITMAP
78
78
C6
C6
C6
C6
C6
78
78
06
06
ENDCHAR
STARTCHAR 0072
ENCODING 114
SWIDTH 792 0
DWIDTH 11 0
BBX 7 9 2 0
BITMAP
F8
F8
C6
C6
F8
F8
D8
C6
C6
ENDCHAR
STARTCHAR 0073
ENCODING 115
SWIDTH 792 0
DWIDTH 11 0
BBX 7 9 2 0
BITMAP
7E
7E
C0
C0
78
06
06
F8
F8
ENDCHAR
STARTCHAR 0074
ENCODING 116
SWIDTH 648 0
DWIDTH 9 0
BBX 5 9 2 0
BITMAP
F8
F8
60
60
60
60
60
60
60
ENDCHAR
STARTCHAR 0075
ENCODING 117
SWIDTH 792 0
DWIDTH 11 0
BBX 7 9 2 0
BITMAP
C6
C6
C6
C6
C6
C6
C6
78
78
ENDCHAR
STARTCHAR 0076
ENCODING 118
SWIDTH 864 0
DWIDTH 12 0
BBX 9 9 2 0
BITMAP
C180
C180
C180
E780
6600
6600
6600
1800
1800
ENDCHAR
STARTCHAR 0077
ENCODING 119
SWIDTH 864 0
DWIDTH 12 0
BBX 9 9 2 0
BITMAP
C180
C180
D980
D980
D980
D980
D980
6600
6600
ENDCHAR
STARTCHAR 0078
ENCODING 120
SWIDTH 864 0
DWIDTH 12 0
BBX 9 9 2 0
BITMAP
C180
C180
6600
6600
1800
6600
6600
C180
C180
ENDCHAR
STARTCHAR 0079
ENCODING 121
SWIDTH 864 0
DWIDTH 12 0
BBX 9 9 2 0
BITMAP
C180
C180
6600
6600
1800
1800
1800
1800
1800
ENDCHAR
STARTCHAR 007A
ENCODING 122
SWIDTH 648 0
DWIDTH 9 0
BBX 5 9 2 0
BITMAP
F8
F8
18
18
60
C0
C0
F8
F8
ENDCHAR
STARTCHAR 007B
ENCODING 123
SWIDTH 648 0
DWIDTH 9 0
BBX 5 9 2 0
BITMAP
78
78
60
60
C0
60
60
78
78
ENDCHAR
STARTCHAR 007C
ENCODING 124
SWIDTH 360 0
DWIDTH 5 0
BBX 2 13 2 -2
BITMAP
C0
C0
C0
C0
C0
C0
C0
C0
C0
C0
C0
C0
C0
ENDCHAR
STARTCHAR 007D
ENCODING 125
SWIDTH 648 0
DWIDTH 9 0
BBX 5 9 2 0
BITMAP
E0
E0
60
60
18
60
60
E0
E0
ENDCHAR
STARTCHAR 007E
ENCODING 126
SWIDTH 792 0
DWIDTH 11 0
BBX 7 4 2 5
BITMAP
66
66
D8
D8
ENDCHAR
STARTCHAR 00A0
ENCODING 160
SWIDTH 504 0
DWIDTH 7 0
BBX 0 0 0 0
BITMAP
ENDCHAR
STARTCHAR 00A1
ENCODING 161
SWIDTH 360 0
DWIDTH 5 0
BBX 2 9 2 0
BITMAP
C0
C0
00
00
C0
C0
C0
C0
C0
ENDCHAR
STARTCHAR 00A2
ENCODING 162
SWIDTH 648 0
DWIDTH 9 0
BBX 5 9 2 0
BITMAP
60
60
F8
F8
C0
F8
F8
60
60
ENDCHAR
STARTCHAR 00A3
ENCODING 163
SWIDTH 792 0
DWIDTH 11 0
BBX 7 9 2 0
BITMAP
1E
1E
18
18
F8
F8
60
FE
FE
ENDCHAR
STARTCHAR 00A4
ENCODING 164
SWIDTH 864 0
DWIDTH 12 0
BBX 9 9 2 0
BITMAP
D980
D980
6600
6600
6600
6600
6600
D980
D980
ENDCHAR
STARTCHAR 00A5
ENCODING 165
SWIDTH 864 0
DWIDTH 12 0
BBX 9 9 2 0
BITMAP
C180
C180
7E00
7E00
1800
7E00
7E00
1800
1800
ENDCHAR
STARTCHAR 00A6
ENCODING 166
SWIDTH 360 0
DWIDTH 5 0
BBX 2 9 2 0
BITMAP
C0
C0
C0
C0
00
C0
C0
C0
C0
ENDCHAR
STARTCHAR 00A7
ENCODING 167
SWIDTH 792 0
DWIDTH 11 0
BBX 7 13 2 -2
BITMAP
78
78
C0
C0
78
78
C6
78
78
06
06
78
78
ENDCHAR
STARTCHAR 00A8
ENCODING 168
SWIDTH 648 0
DWIDTH 9 0
BBX 5 2 2 13
BITMAP
D8
D8
ENDCHAR
STARTCHAR 00A9
ENCODING 169
SWIDTH 1152 0
DWIDTH 16 0
BBX 12 13 2 -2
BITMAP
7FC0
7FC0
C030
C030
DFB0
DFB0
D830
D830
DFB0
DFB0
C030
7FC0
7FC0
ENDCHAR
STARTCHAR 00AA
ENCODING 170
SWIDTH 648 0
DWIDTH 9 0
BBX 5 5 2 4
BITMAP
60
60
D8
78
78
ENDCHAR
STARTCHAR 00AB
ENCODING 171
SWIDTH 864 0
DWIDTH 12 0
BBX 9 5 2 2
BITMAP
6180
C600
C600
6180
6180
ENDCHAR
STARTCHAR 00AC
ENCODING 172
SWIDTH 792 0
DWIDTH 11 0
BBX 7 4 2 2
BITMAP
FE
FE
06
06
ENDCHAR
STARTCHAR 00AD
ENCODING 173
SWIDTH 0 0
DWIDTH 0 0
BBX 6 2 -3 4
BITMAP
FC
FC
ENDCHAR
STARTCHAR 00AE
ENCODING 174
SWIDTH 1152 0
DWIDTH 16 0
BBX 12 13 2 -2
BITMAP
7FC0
7FC0
C030
C030
C7B0
C7B0
D830
D830
D830
D830
C030
7FC0
7FC0
ENDCHAR
STARTCHAR 00AF
ENCODING 175
SWIDTH 792 0
DWIDTH 11 0
BBX 7 2 2 7
BITMAP
FE
FE
ENDCHAR
STARTCHAR 00B0
ENCODING 176
SWIDTH 648 0
DWIDTH 9 0
BBX 5 5 2 4
BITMAP
60
F8
D8
60
60
ENDCHAR
STARTCHAR 00B1
ENCODING 177
SWIDTH 864 0
DWIDTH 12 0
BBX 9 11 2 -2
BITMAP
1800
1800
1800
1800
FF80
FF80
1800
1800
1800
FF80
FF80
ENDCHAR
STARTCHAR 00B2
ENCODING 178
SWIDTH 648 0
DWIDTH 9 0
BBX 5 7 2 2
BITMAP
E0
E0
18
18
60
F8
F8
ENDCHAR
STARTCHAR 00B3
ENCODING 179
SWIDTH 648 0
DWIDTH 9 0
BBX 5 7 2 2
BITMAP
E0
E0
78
78
18
F8
F8
ENDCHAR
STARTCHAR 00B4
ENCODING 180
SWIDTH 504 0
DWIDTH 7 0
BBX 3 4 2 11
BITMAP
60
60
C0
C0
ENDCHAR
STARTCHAR 00B5
ENCODING 181
SWIDTH 792 0
DWIDTH 11 0
BBX 7 11 2 -2
BITMAP
C6
C6
C6
C6
C6
C6
C6
F8
F8
C0
C0
ENDCHAR
STARTCHAR 00B6
ENCODING 182
SWIDTH 864 0
DWIDTH 12 0
BBX 9 9 2 0
BITMAP
7F80
7F80
D980
D980
7F80
7F80
1980
1980
1980
ENDCHAR
STARTCHAR 00B7
ENCODING 183
SWIDTH 360 0
DWIDTH 5 0
BBX 2 2 2 4
BITMAP
C0
C0
ENDCHAR
STARTCHAR 00B8
ENCODING 184
SWIDTH 504 0
DWIDTH 7 0
BBX 3 4 2 -4
BITMAP
20
20
C0
C0
ENDCHAR
STARTCHAR 00B9
ENCODING 185
SWIDTH 504 0
DWIDTH 7 0
BBX 3 7 2 2
BITMAP
E0
E0
60
60
60
60
60
ENDCHAR
STARTCHAR 00BA
ENCODING 186
SWIDTH 648 0
DWIDTH 9 0
BBX 5 5 2 4
BITMAP
60
60
D8
F8
60
ENDCHAR
STARTCHAR 00BB
ENCODING 187
SWIDTH 864 0
DWIDTH 12 0
BBX 9 5 2 2
BITMAP
C600
6180
6180
C600
C600
ENDCHAR
STARTCHAR 00BC
ENCODING 188
SWIDTH 1152 0
DWIDTH 16 0
BBX 12 9 2 0
BITMAP
C600
C600
C600
C600
D9B0
61F0
61F0
6030
6030
ENDCHAR
STARTCHAR 00BD
ENCODING 189
SWIDTH 1152 0
DWIDTH 16 0
BBX 12 9 2 0
BITMAP
C600
C600
C7C0
C7C0
D830
60C0
60C0
61F0
61F0
ENDCHAR
STARTCHAR 00BE
ENCODING 190
SWIDTH 1296 0
DWIDTH 18 0
BBX 14 9 2 0
BITMAP
E180
E180
7980
7980
1ECC
F8FC
F8FC
180C
180C
ENDCHAR
STARTCHAR 00BF
ENCODING 191
SWIDTH 792 0
DWIDTH 11 0
BBX 7 9 2 0
BITMAP
18
18
00
00
78
C0
C0
7E
7E
ENDCHAR
STARTCHAR 00C0
ENCODING 192
SWIDTH 792 0
DWIDTH 11 0
BBX 7 15 2 0
BITMAP
60
60
18
18
00
00
78
78
C6
C6
FE
FE
C6
C6
C6
ENDCHAR
STARTCHAR 00C1
ENCODING 193
SWIDTH 792 0
DWIDTH 11 0
BBX 7 15 2 0
BITMAP
18
18
60
60
00
00
78
78
C6
C6
FE
FE
C6
C6
C6
ENDCHAR
STARTCHAR 00C2
ENCODING 194
SWIDTH 792 0
DWIDTH 11 0
BBX 7 14 2 0
BITMAP
78
C6
C6
00
00
78
78
C6
C6
FE
FE
C6
C6
C6
ENDCHAR
STARTCHAR 00C3
ENCODING 195
SWIDTH 792 0
DWIDTH 11 0
BBX 7 15 2 0
BITMAP
66
66
D8
D8
00
00
78
78
C6
C6
FE
FE
C6
C6
C6
ENDCHAR
STARTCHAR 00C4
ENCODING 196
SWIDTH 792 0
DWIDTH 11 0
BBX 7 13 2 0
BITMAP
C6
C6
00
00
78
78
C6
C6
FE
FE
C6
C6
C6
ENDCHAR
STARTCHAR 00C5
ENCODING 197
SWIDTH 792 0
DWIDTH 11 0
BBX 7 14 2 0
BITMAP
C6
78
78
00
00
78
78
C6
C6
FE
FE
C6
C6
C6
ENDCHAR
STARTCHAR 00C6
ENCODING 198
SWIDTH 864 0
DWIDTH 12 0
BBX 9 9 2 0
BITMAP
7F80
7F80
D800
D800
FF80
FF80
D800
DF80
DF80
ENDCHAR
STARTCHAR 00C7
ENCODING 199
SWIDTH 792 0
DWIDTH 11 0
BBX 7 13 2 -4
BITMAP
78
78
C6
C6
C0
C6
C6
78
78
60
60
C0
C0
ENDCHAR
STARTCHAR 00C8
ENCODING 200
SWIDTH 648 0
DWIDTH 9 0
BBX 5 15 2 0
BITMAP
C0
C0
60
60
00
00
F8
F8
C0
C0
F8
F8
C0
F8
F8
ENDCHAR
STARTCHAR 00C9
ENCODING 201
SWIDTH 648 0
DWIDTH 9 0
BBX 5 15 2 0
BITMAP
18
18
60
60
00
00
F8
F8
C0
C0
F8
F8
C0
F8
F8
ENDCHAR
STARTCHAR 00CA
ENCODING 202
SWIDTH 648 0
DWIDTH 9 0
BBX 5 15 2 0
BITMAP
60
60
D8
D8
00
00
F8
F8
C0
C0
F8
F8
C0
F8
F8
ENDCHAR
STARTCHAR 00CB
ENCODING 203
SWIDTH 648 0
DWIDTH 9 0
BBX 5 13 2 0
BITMAP
D8
D8
00
00
F8
F8
C0
C0
F8
F8
C0
F8
F8
ENDCHAR
STARTCHAR 00CC
ENCODING 204
SWIDTH 360 0
DWIDTH 5 0
BBX 4 15 0 0
BITMAP
C0
C0
30
30
00
00
30
30
30
30
30
30
30
30
30
ENDCHAR
STARTCHAR 00CD
ENCODING 205
SWIDTH 360 0
DWIDTH 5 0
BBX 3 15 2 0
BITMAP
60
60
C0
C0
00
00
C0
C0
C0
C0
C0
C0
C0
C0
C0
ENDCHAR
STARTCHAR 00CE
ENCODING 206
SWIDTH 360 0
DWIDTH 5 0
BBX 5 15 0 0
BITMAP
30
30
D8
D8
00
00
30
30
30
30
30
30
30
30
30
ENDCHAR
STARTCHAR 00CF
ENCODING 207
SWIDTH 360 0
DWIDTH 5 0
BBX 5 13 0 0
BITMAP
D8
D8
00
00
30
30
30
30
30
30
30
30
30
ENDCHAR
STARTCHAR 00D0
ENCODING 208
SWIDTH 864 0
DWIDTH 12 0
BBX 9 9 2 0
BITMAP
7E00
7E00
6180
6180
F980
F980
6180
7E00
7E00
ENDCHAR
STARTCHAR 00D1
ENCODING 209
SWIDTH 864 0
DWIDTH 12 0
BBX 9 15 2 0
BITMAP
1980
1980
6600
6600
0000
0000
C180
C180
E180
E180
D980
C780
C780
C180
C180
ENDCHAR
STARTCHAR 00D2
ENCODING 210
SWIDTH 792 0
DWIDTH 11 0
BBX 7 15 2 0
BITMAP
60
60
18
18
00
00
78
78
C6
C6
C6
C6
C6
78
78
ENDCHAR
STARTCHAR 00D3
ENCODING 211
SWIDTH 792 0
DWIDTH 11 0
BBX 7 15 2 0
BITMAP
18
18
60
60
00
00
78
78
C6
C6
C6
C6
C6
78
78
ENDCHAR
STARTCHAR 00D4
ENCODING 212
SWIDTH 792 0
DWIDTH 11 0
BBX 7 15 2 0
BITMAP
30
30
4C
4C
00
00
78
78
C6
C6
C6
C6
C6
78
78
ENDCHAR
STARTCHAR 00D5
ENCODING 213
SWIDTH 792 0
DWIDTH 11 0
BBX 7 15 2 0
BITMAP
66
66
D8
D8
00
00
78
78
C6
C6
C6
C6
C6
78
78
ENDCHAR
STARTCHAR 00D6
ENCODING 214
SWIDTH 792 0
DWIDTH 11 0
BBX 7 13 2 0
BITMAP
4C
4C
00
00
78
78
C6
C6
C6
C6
C6
78
78
ENDCHAR
STARTCHAR 00D7
ENCODING 215
SWIDTH 648 0
DWIDTH 9 0
BBX 5 5 2 2
BITMAP
D8
60
60
D8
D8
ENDCHAR
STARTCHAR 00D8
ENCODING 216
SWIDTH 864 0
DWIDTH 12 0
BBX 9 9 2 0
BITMAP
7E00
7E00
C780
C780
D980
E180
E180
7E00
7E00
ENDCHAR
STARTCHAR 00D9
ENCODING 217
SWIDTH 792 0
DWIDTH 11 0
BBX 7 15 2 0
BITMAP
60
60
18
18
00
00
C6
C6
C6
C6
C6
C6
C6
78
78
ENDCHAR
STARTCHAR 00DA
ENCODING 218
SWIDTH 792 0
DWIDTH 11 0
BBX 7 15 2 0
BITMAP
18
18
60
60
00
00
C6
C6
C6
C6
C6
C6
C6
78
78
ENDCHAR
STARTCHAR 00DB
ENCODING 219
SWIDTH 792 0
DWIDTH 11 0
BBX 7 15 2 0
BITMAP
30
30
4C
4C
00
00
C6
C6
C6
C6
C6
C6
C6
78
78
ENDCHAR
STARTCHAR 00DC
ENCODING 220
SWIDTH 792 0
DWIDTH 11 0
BBX 7 13 2 0
BITMAP
4C
4C
00
00
C6
C6
C6
C6
C6
C6
C6
78
78
ENDCHAR
STARTCHAR 00DD
ENCODING 221
SWIDTH 864 0
DWIDTH 12 0
BBX 9 15 2 0
BITMAP
0C00
0C00
3000
3000
0000
0000
C180
C180
6600
6600
1800
1800
1800
1800
1800
ENDCHAR
STARTCHAR 00DE
ENCODING 222
SWIDTH 648 0
DWIDTH 9 0
BBX 5 9 2 0
BITMAP
C0
C0
E0
E0
D8
E0
E0
C0
C0
ENDCHAR
STARTCHAR 00DF
ENCODING 223
SWIDTH 792 0
DWIDTH 11 0
BBX 7 9 2 0
BITMAP
78
78
C6
C6
D8
C6
C6
D8
D8
ENDCHAR
STARTCHAR 00E0
ENCODING 224
SWIDTH 792 0
DWIDTH 11 0
BBX 7 15 2 0
BITMAP
60
60
18
18
00
00
78
78
C6
C6
FE
FE
C6
C6
C6
ENDCHAR
STARTCHAR 00E1
ENCODING 225
SWIDTH 792 0
DWIDTH 11 0
BBX 7 15 2 0
BITMAP
18
18
60
60
00
00
78
78
C6
C6
FE
FE
C6
C6
C6
ENDCHAR
STARTCHAR 00E2
ENCODING 226
SWIDTH 792 0
DWIDTH 11 0
BBX 7 14 2 0
BITMAP
78
C6
C6
00
00
78
78
C6
C6
FE
FE
C6
C6
C6
ENDCHAR
STARTCHAR 00E3
ENCODING 227
SWIDTH 792 0
DWIDTH 11 0
BBX 7 15 2 0
BITMAP
66
66
D8
D8
00
00
78
78
C6
C6
FE
FE
C6
C6
C6
ENDCHAR
STARTCHAR 00E4
ENCODING 228
SWIDTH 792 0
DWIDTH 11 0
BBX 7 13 2 0
BITMAP
C6
C6
00
00
78
78
C6
C6
FE
FE
C6
C6
C6
ENDCHAR
STARTCHAR 00E5
ENCODING 229
SWIDTH 792 0
DWIDTH 11 0
BBX 7 14 2 0
BITMAP
C6
78
78
00
00
78
78
C6
C6
FE
FE
C6
C6
C6
ENDCHAR
STARTCHAR 00E6
ENCODING 230
SWIDTH 864 0
DWIDTH 12 0
BBX 9 9 2 0
BITMAP
7F80
7F80
D800
D800
FF80
FF80
D800
DF80
DF80
ENDCHAR
STARTCHAR 00E7
ENCODING 231
SWIDTH 792 0
DWIDTH 11 0
BBX 7 13 2 -4
BITMAP
78
78
C6
C6
C0
C6
C6
78
78
60
60
C0
C0
ENDCHAR
STARTCHAR 00E8
ENCODING 232
SWIDTH 648 0
DWIDTH 9 0
BBX 5 15 2 0
BITMAP
C0
C0
60
60
00
00
F8
F8
C0
C0
F8
F8
C0
F8
F8
ENDCHAR
STARTCHAR 00E9
ENCODING 233
SWIDTH 648 0
DWIDTH 9 0
BBX 5 15 2 0
BITMAP
18
18
60
60
00
00
F8
F8
C0
C0
F8
F8
C0
F8
F8
ENDCHAR
STARTCHAR 00EA
ENCODING 234
SWIDTH 648 0
DWIDTH 9 0
BBX 5 15 2 0
BITMAP
60
60
D8
D8
00
00
F8
F8
C0
C0
F8
F8
C0
F8
F8
ENDCHAR
STARTCHAR 00EB
ENCODING 235
SWIDTH 648 0
DWIDTH 9 0
BBX 5 13 2 0
BITMAP
D8
D8
00
00
F8
F8
C0
C0
F8
F8
C0
F8
F8
ENDCHAR
STARTCHAR 00EC
ENCODING 236
SWIDTH 360 0
DWIDTH 5 0
BBX 4 14 0 0
BITMAP
C0
30
30
00
00
30
30
30
30
30
30
30
30
30
ENDCHAR
STARTCHAR 00ED
ENCODING 237
SWIDTH 360 0
DWIDTH 5 0
BBX 3 14 2 0
BITMAP
60
C0
C0
00
00
C0
C0
C0
C0
C0
C0
C0
C0
C0
ENDCHAR
STARTCHAR 00EE
ENCODING 238
SWIDTH 360 0
DWIDTH 5 0
BBX 5 14 0 0
BITMAP
30
D8
D8
00
00
30
30
30
30
30
30
30
30
30
ENDCHAR
STARTCHAR 00EF
ENCODING 239
SWIDTH 360 0
DWIDTH 5 0
BBX 5 13 0 0
BITMAP
D8
D8
00
00
30
30
30
30
30
30
30
30
30
ENDCHAR
STARTCHAR 00F0
ENCODING 240
SWIDTH 864 0
DWIDTH 12 0
BBX 9 9 2 0
BITMAP
7E00
7E00
6180
6180
F980
F980
6180
7E00
7E00
ENDCHAR
STARTCHAR 00F1
ENCODING 241
SWIDTH 864 0
DWIDTH 12 0
BBX 9 15 2 0
BITMAP
1980
1980
6600
6600
0000
0000
C180
C180
E180
E180
D980
C780
C780
C180
C180
ENDCHAR
STARTCHAR 00F2
ENCODING 242
SWIDTH 792 0
DWIDTH 11 0
BBX 7 15 2 0
BITMAP
60
60
18
18
00
00
78
78
C6
C6
C6
C6
C6
78
78
ENDCHAR
STARTCHAR 00F3
ENCODING 243
SWIDTH 792 0
DWIDTH 11 0
BBX 7 15 2 0
BITMAP
18
18
60
60
00
00
78
78
C6
C6
C6
C6
C6
78
78
ENDCHAR
STARTCHAR 00F4
ENCODING 244
SWIDTH 792 0
DWIDTH 11 0
BBX 7 14 2 0
BITMAP
78
C6
C6
00
00
78
78
C6
C6
C6
C6
C6
78
78
ENDCHAR
STARTCHAR 00F5
ENCODING 245
SWIDTH 792 0
DWIDTH 11 0
BBX 7 15 2 0
BITMAP
66
66
D8
D8
00
00
78
78
C6
C6
C6
C6
C6
78
78
ENDCHAR
STARTCHAR 00F6
ENCODING 246
SWIDTH 792 0
DWIDTH 11 0
BBX 7 13 2 0
BITMAP
C6
C6
00
00
78
78
C6
C6
C6
C6
C6
78
78
ENDCHAR
STARTCHAR 00F7
ENCODING 247
SWIDTH 648 0
DWIDTH 9 0
BBX 5 9 2 0
BITMAP
60
60
00
00
F8
F8
00
60
60
ENDCHAR
STARTCHAR 00F8
ENCODING 248
SWIDTH 864 0
DWIDTH 12 0
BBX 9 9 2 0
BITMAP
7E00
7E00
C780
C780
D980
E180
E180
7E00
7E00
ENDCHAR
STARTCHAR 00F9
ENCODING 249
SWIDTH 792 0
DWIDTH 11 0
BBX 7 15 2 0
BITMAP
60
60
18
18
00
00
C6
C6
C6
C6
C6
C6
C6
78
78
ENDCHAR
STARTCHAR 00FA
ENCODING 250
SWIDTH 792 0
DWIDTH 11 0
BBX 7 15 2 0
BITMAP
18
18
60
60
00
00
C6
C6
C6
C6
C6
C6
C6
78
78
ENDCHAR
STARTCHAR 00FB
ENCODING 251
SWIDTH 792 0
DWIDTH 11 0
BBX 7 14 2 0
BITMAP
78
C6
C6
00
00
C6
C6
C6
C6
C6
C6
C6
78
78
ENDCHAR
STARTCHAR 00FC
ENCODING 252
SWIDTH 792 0
DWIDTH 11 0
BBX 7 13 2 0
BITMAP
C6
C6
00
00
C6
C6
C6
C6
C6
C6
C6
78
78
ENDCHAR
STARTCHAR 00FD
ENCODING 253
SWIDTH 864 0
DWIDTH 12 0
BBX 9 15 2 0
BITMAP
0600
0600
1800
1800
0000
0000
C180
C180
6600
6600
1800
1800
1800
1800
1800
ENDCHAR
STARTCHAR 00FE
ENCODING 254
SWIDTH 648 0
DWIDTH 9 0
BBX 5 9 2 0
BITMAP
C0
C0
E0
E0
D8
E0
E0
C0
C0
ENDCHAR
STARTCHAR 00FF
ENCODING 255
SWIDTH 864 0
DWIDTH 12 0
BBX 9 13 2 0
BITMAP
6600
6600
0000
0000
C180
C180
6600
6600
1800
1800
1800
1800
1800
ENDCHAR
STARTCHAR 0152
ENCODING 338
SWIDTH 864 0
DWIDTH 12 0
BBX 9 9 2 0
BITMAP
7F80
7F80
D800
D800
DF80
DF80
D800
7F80
7F80
ENDCHAR
STARTCHAR 0153
ENCODING 339
SWIDTH 864 0
DWIDTH 12 0
BBX 9 9 2 0
BITMAP
7F80
7F80
D800
D800
DF80
DF80
D800
7F80
7F80
ENDCHAR
STARTCHAR 0160
ENCODING 352
SWIDTH 792 0
DWIDTH 11 0
BBX 7 14 2 0
BITMAP
C6
78
78
00
00
7E
7E
C0
C0
78
06
06
F8
F8
ENDCHAR
STARTCHAR 0161
ENCODING 353
SWIDTH 792 0
DWIDTH 11 0
BBX 7 14 2 0
BITMAP
C6
78
78
00
00
7E
7E
C0
C0
78
06
06
F8
F8
ENDCHAR
STARTCHAR 0178
ENCODING 376
SWIDTH 864 0
DWIDTH 12 0
BBX 9 13 2 0
BITMAP
6600
6600
0000
0000
C180
C180
6600
6600
1800
1800
1800
1800
1800
ENDCHAR
STARTCHAR 017D
ENCODING 381
SWIDTH 648 0
DWIDTH 9 0
BBX 5 14 2 0
BITMAP
D8
60
60
00
00
F8
F8
18
18
60
C0
C0
F8
F8
ENDCHAR
STARTCHAR 017E
ENCODING 382
SWIDTH 648 0
DWIDTH 9 0
BBX 5 14 2 0
BITMAP
D8
60
60
00
00
F8
F8
18
18
60
C0
C0
F8
F8
ENDCHAR
STARTCHAR 0192
ENCODING 402
SWIDTH 864 0
DWIDTH 12 0
BBX 9 11 2 -2
BITMAP
1F80
1F80
1800
1800
7E00
7E00
6000
6000
6000
C000
C000
ENDCHAR
STARTCHAR 02C6
ENCODING 710
SWIDTH 648 0
DWIDTH 9 0
BBX 5 4 2 11
BITMAP
60
60
D8
D8
ENDCHAR
STARTCHAR 02DC
ENCODING 732
SWIDTH 792 0
DWIDTH 11 0
BBX 7 4 2 11
BITMAP
66
66
D8
D8
ENDCHAR
STARTCHAR 0300
ENCODING 768
SWIDTH 0 0
DWIDTH 0 0
BBX 3 4 2 11
BITMAP
C0
C0
60
60
ENDCHAR
STARTCHAR 0301
ENCODING 769
SWIDTH 0 0
DWIDTH 0 0
BBX 3 4 2 11
BITMAP
60
60
C0
C0
ENDCHAR
STARTCHAR 0302
ENCODING 770
SWIDTH 0 0
DWIDTH 0 0
BBX 5 4 2 11
BITMAP
60
60
D8
D8
ENDCHAR
STARTCHAR 0303
ENCODING 771
SWIDTH 0 0
DWIDTH 0 0
BBX 7 4 2 11
BITMAP
66
66
D8
D8
ENDCHAR
STARTCHAR 0304
ENCODING 772
SWIDTH 0 0
DWIDTH 0 0
BBX 7 2 2 7
BITMAP
FE
FE
ENDCHAR
STARTCHAR 0308
ENCODING 776
SWIDTH 0 0
DWIDTH 0 0
BBX 5 2 2 13
BITMAP
D8
D8
ENDCHAR
STARTCHAR 0327
ENCODING 807
SWIDTH 0 0
DWIDTH 0 0
BBX 3 4 2 -4
BITMAP
20
20
C0
C0
ENDCHAR
STARTCHAR 2013
ENCODING 8211
SWIDTH 792 0
DWIDTH 11 0
BBX 7 2 2 4
BITMAP
FE
FE
ENDCHAR
STARTCHAR 2014
ENCODING 8212
SWIDTH 1008 0
DWIDTH 14 0
BBX 10 2 2 4
BITMAP
FFC0
FFC0
ENDCHAR
STARTCHAR 2018
ENCODING 8216
SWIDTH 360 0
DWIDTH 5 0
BBX 2 4 2 5
BITMAP
C0
C0
C0
C0
ENDCHAR
STARTCHAR 2019
ENCODING 8217
SWIDTH 360 0
DWIDTH 5 0
BBX 2 4 2 5
BITMAP
C0
C0
C0
C0
ENDCHAR
STARTCHAR 201A
ENCODING 8218
SWIDTH 504 0
DWIDTH 7 0
BBX 3 4 2 -2
BITMAP
60
60
C0
C0
ENDCHAR
STARTCHAR 201C
ENCODING 8220
SWIDTH 648 0
DWIDTH 9 0
BBX 5 4 2 5
BITMAP
D8
D8
D8
D8
ENDCHAR
STARTCHAR 201D
ENCODING 8221
SWIDTH 648 0
DWIDTH 9 0
BBX 5 4 2 5
BITMAP
D8
D8
D8
D8
ENDCHAR
STARTCHAR 201E
ENCODING 8222
SWIDTH 648 0
DWIDTH 9 0
BBX 5 4 2 0
BITMAP
D8
D8
D8
D8
ENDCHAR
STARTCHAR 2020
ENCODING 8224
SWIDTH 648 0
DWIDTH 9 0
BBX 5 9 2 0
BITMAP
60
60
F8
F8
60
60
60
60
60
ENDCHAR
STARTCHAR 2021
ENCODING 8225
SWIDTH 648 0
DWIDTH 9 0
BBX 5 9 2 0
BITMAP
60
60
F8
F8
60
F8
F8
60
60
ENDCHAR
STARTCHAR 2022
ENCODING 8226
SWIDTH 360 0
DWIDTH 5 0
BBX 2 2 2 4
BITMAP
C0
C0
ENDCHAR
STARTCHAR 2026
ENCODING 8230
SWIDTH 864 0
DWIDTH 12 0
BBX 9 2 2 0
BITMAP
D980
D980
ENDCHAR
STARTCHAR 2030
ENCODING 8240
SWIDTH 1008 0
DWIDTH 14 0
BBX 10 9 2 0
BITMAP
E600
E600
E600
E600
1800
66C0
66C0
66C0
66C0
ENDCHAR
STARTCHAR 2039
ENCODING 8249
SWIDTH 504 0
DWIDTH 7 0
BBX 3 5 2 2
BITMAP
60
C0
C0
60
60
ENDCHAR
STARTCHAR 203A
ENCODING 8250
SWIDTH 504 0
DWIDTH 7 0
BBX 3 5 2 2
BITMAP
C0
60
60
C0
C0
ENDCHAR
STARTCHAR 20AC
ENCODING 8364
SWIDTH 864 0
DWIDTH 12 0
BBX 9 9 2 0
BITMAP
1E00
1E00
6180
6180
F800
6180
6180
1E00
1E00
ENDCHAR
STARTCHAR 2122
ENCODING 8482
SWIDTH 1296 0
DWIDTH 18 0
BBX 14 5 2 5
BITMAP
FFBC
66CC
66CC
66CC
66CC
ENDCHAR
ENDFONT
